<svg width="1059" height="1058" viewBox="0 0 1059 1058" fill="none" xmlns="http://www.w3.org/2000/svg">
<g filter="url(#filter0_d_26_5)">
<ellipse cx="529.442" cy="512" rx="514.442" ry="512" fill="url(#paint0_linear_26_5)" shape-rendering="crispEdges"/>
</g>
<g filter="url(#filter1_di_26_5)">
<path d="M716.321 226.567C729.558 254.82 763.142 267.168 791.611 254.39L792.283 254.083L810.647 293.279C803.862 296.757 800.994 304.982 804.248 311.928C807.503 318.874 815.676 321.973 822.716 319.036L834.804 344.838C828.019 348.316 825.151 356.541 828.405 363.487C831.66 370.433 839.833 373.532 846.873 370.595L858.961 396.396C852.176 399.875 849.308 408.1 852.562 415.046C855.817 421.992 863.99 425.091 871.03 422.154L888.911 460.319C860.3 473.597 847.921 507.445 861.263 535.92L343.216 776.343C329.978 748.09 296.395 735.742 267.925 748.52L267.254 748.826L249.372 710.661C249.547 710.588 249.722 710.513 249.896 710.432C257.048 707.113 260.142 698.651 256.807 691.532C253.472 684.413 244.97 681.333 237.817 684.653C237.644 684.733 237.473 684.817 237.304 684.904L225.215 659.102C225.39 659.029 225.565 658.954 225.739 658.873C232.891 655.554 235.985 647.092 232.65 639.973C229.315 632.855 220.813 629.774 213.66 633.094C213.487 633.174 213.316 633.258 213.147 633.345L201.058 607.543C201.233 607.47 201.408 607.395 201.582 607.314C208.734 603.995 211.828 595.533 208.493 588.414C205.158 581.296 196.656 578.216 189.503 581.535C189.33 581.615 189.159 581.7 188.99 581.786L170.626 542.591C199.013 529.416 211.421 495.993 198.582 467.658L198.274 466.989L716.321 226.567Z" fill="#D9D9D9" fill-opacity="0.9" shape-rendering="crispEdges"/>
</g>
<path d="M641.128 527.248C640.035 533.451 637.488 539.308 633.697 544.339C629.906 549.37 624.978 553.432 619.316 556.194C613.654 558.955 607.419 560.337 601.121 560.227C594.823 560.117 588.64 558.518 583.078 555.561L586.826 548.512C591.275 550.878 596.222 552.157 601.26 552.245C606.299 552.333 611.287 551.227 615.817 549.018C620.346 546.809 624.288 543.559 627.321 539.534C630.354 535.51 632.391 530.824 633.266 525.861L641.128 527.248Z" fill="#052C24"/>
<path d="M306.192 564.269C304.682 564.969 303.161 565.04 301.627 564.482C300.093 563.924 298.973 562.891 298.267 561.384C297.561 559.878 297.487 558.36 298.043 556.832C298.599 555.304 299.632 554.19 301.141 553.489C302.592 552.816 304.056 552.771 305.532 553.356C307.065 553.915 308.185 554.947 308.891 556.454C309.597 557.961 309.672 559.478 309.116 561.006C308.618 562.508 307.643 563.595 306.192 564.269ZM313.648 570.227L335.968 617.866L328.044 621.543L305.724 573.905L313.648 570.227ZM349.996 552.3C355.802 549.606 361.332 549.191 366.588 551.056C371.816 552.863 375.978 557.069 379.074 563.676L392.23 591.755L384.392 595.392L371.766 568.444C369.539 563.691 366.652 560.621 363.105 559.234C359.53 557.789 355.681 558.022 351.56 559.935C347.38 561.875 344.653 564.728 343.378 568.495C342.162 572.234 342.721 576.596 345.057 581.58L357.398 607.92L349.474 611.598L327.154 563.959L335.078 560.282L338.255 567.063C338.682 563.901 339.918 561.034 341.964 558.462C344.068 555.863 346.745 553.809 349.996 552.3ZM402.167 528.194C406.289 526.281 410.309 525.509 414.227 525.877C418.204 526.219 421.585 527.402 424.371 529.425L420.298 520.732L428.309 517.014L451.118 565.695C453.154 570.042 454.031 574.327 453.748 578.55C453.493 582.832 452.071 586.737 449.484 590.266C446.955 593.768 443.398 596.583 438.811 598.712C432.542 601.622 426.625 602.569 421.06 601.553C415.495 600.537 411.141 597.654 407.997 592.904L415.834 589.267C418.062 591.761 420.948 593.244 424.491 593.716C428.061 594.246 431.762 593.622 435.594 591.844C439.948 589.824 442.851 586.818 444.303 582.828C445.813 578.811 445.415 574.34 443.107 569.413L438.423 559.416C438.159 562.926 436.923 566.321 434.715 569.604C432.507 572.886 429.342 575.484 425.22 577.397C420.982 579.364 416.633 580.112 412.172 579.642C407.77 579.145 403.699 577.472 399.96 574.621C396.221 571.77 393.225 567.939 390.972 563.129C388.691 558.261 387.682 553.543 387.945 548.976C388.181 544.351 389.536 540.229 392.011 536.611C394.544 532.966 397.929 530.16 402.167 528.194ZM431.417 544.464C429.733 540.871 427.542 538.078 424.841 536.086C422.141 534.094 419.217 532.981 416.069 532.749C412.952 532.431 409.913 532.96 406.952 534.334C403.991 535.708 401.618 537.656 399.831 540.179C398.045 542.701 397.05 545.632 396.848 548.971C396.646 552.311 397.386 555.777 399.07 559.37C400.781 563.021 403 565.872 405.727 567.922C408.428 569.915 411.336 571.07 414.453 571.387C417.543 571.646 420.569 571.089 423.529 569.715C426.49 568.341 428.864 566.393 430.65 563.87C432.467 561.263 433.477 558.289 433.68 554.95C433.855 551.553 433.101 548.057 431.417 544.464ZM453.249 514.858C453.366 511.488 454.349 508.457 456.197 505.764C458.104 503.045 460.915 500.823 464.63 499.099L468.459 507.271L466.369 508.241C457.487 512.363 455.299 519.234 459.807 528.854L471.944 554.76L464.02 558.437L441.7 510.799L449.624 507.122L453.249 514.858ZM517.683 534.485C513.213 536.56 508.674 537.432 504.067 537.1C499.517 536.742 495.328 535.194 491.501 532.455C487.704 529.631 484.651 525.756 482.343 520.829C480.063 515.961 479.098 511.188 479.45 506.509C479.833 501.745 481.392 497.529 484.126 493.861C486.833 490.136 490.45 487.222 494.978 485.12C499.507 483.019 504.074 482.134 508.682 482.465C513.263 482.738 517.467 484.244 521.295 486.983C525.18 489.695 528.277 493.515 530.585 498.441C532.893 503.367 533.827 508.225 533.386 513.016C532.976 517.722 531.388 521.951 528.623 525.704C525.858 529.457 522.211 532.384 517.683 534.485ZM514.425 527.531C517.27 526.211 519.628 524.305 521.499 521.813C523.371 519.322 524.437 516.393 524.698 513.027C525.016 509.633 524.279 506.024 522.487 502.199C520.695 498.374 518.42 495.479 515.661 493.514C512.903 491.548 510.006 490.494 506.97 490.35C503.907 490.149 500.954 490.708 498.109 492.028C495.206 493.376 492.848 495.281 491.035 497.746C489.252 500.125 488.259 502.985 488.057 506.324C487.855 509.664 488.65 513.246 490.442 517.071C492.261 520.954 494.492 523.905 497.134 525.924C499.835 527.917 502.687 529.027 505.692 529.255C508.669 529.426 511.58 528.851 514.425 527.531ZM573.383 508.635C568.913 510.71 564.375 511.581 559.767 511.25C555.217 510.892 551.028 509.344 547.201 506.605C543.404 503.781 540.352 499.906 538.043 494.979C535.763 490.111 534.798 485.338 535.15 480.659C535.533 475.895 537.092 471.679 539.826 468.011C542.533 464.285 546.15 461.372 550.679 459.27C555.207 457.169 559.775 456.284 564.382 456.615C568.963 456.888 573.167 458.394 576.995 461.133C580.88 463.845 583.977 467.665 586.285 472.591C588.593 477.517 589.527 482.375 589.086 487.166C588.676 491.872 587.088 496.101 584.323 499.854C581.558 503.607 577.912 506.534 573.383 508.635ZM570.125 501.681C572.97 500.361 575.328 498.455 577.2 495.963C579.071 493.472 580.137 490.543 580.398 487.177C580.716 483.783 579.979 480.174 578.187 476.349C576.395 472.524 574.12 469.629 571.361 467.663C568.603 465.698 565.706 464.644 562.67 464.5C559.607 464.299 556.654 464.858 553.809 466.178C550.906 467.525 548.548 469.431 546.735 471.896C544.952 474.275 543.959 477.135 543.757 480.474C543.555 483.814 544.35 487.396 546.142 491.221C547.961 495.104 550.192 498.055 552.834 500.074C555.535 502.067 558.387 503.177 561.392 503.405C564.369 503.576 567.28 503.001 570.125 501.681ZM622.248 476.115L618.153 428.909L626.599 424.989L630.197 481.316L620.967 485.6L579.925 446.65L588.459 442.689L622.248 476.115ZM688.241 423.157C688.947 424.664 689.607 426.298 690.22 428.059L652.079 445.76C654.569 450.32 657.89 453.259 662.042 454.578C666.224 455.812 670.405 455.459 674.585 453.519C678.01 451.929 680.488 449.827 682.019 447.211C683.581 444.511 684.202 441.612 683.882 438.515L692.415 434.555C693.283 439.726 692.48 444.649 690.007 449.325C687.506 453.943 683.411 457.572 677.721 460.213C673.193 462.314 668.654 463.186 664.105 462.828C659.613 462.443 655.483 460.867 651.713 458.101C647.916 455.277 644.864 451.402 642.556 446.476C640.248 441.55 639.212 436.774 639.447 432.149C639.683 427.524 641.11 423.405 643.728 419.791C646.377 416.092 650.024 413.165 654.668 411.009C659.196 408.908 663.664 408.034 668.07 408.388C672.476 408.742 676.423 410.227 679.91 412.842C683.428 415.372 686.205 418.81 688.241 423.157ZM679.282 425.304C677.87 422.29 675.994 420.021 673.654 418.497C671.287 416.914 668.685 416.111 665.847 416.088C663.039 415.979 660.243 416.572 657.456 417.865C653.45 419.724 650.623 422.588 648.973 426.459C647.381 430.302 647.441 434.578 649.153 439.287L679.282 425.304Z" fill="#13967A"/>
<path d="M306.192 564.269C304.682 564.969 303.161 565.04 301.627 564.482C300.093 563.924 298.973 562.891 298.267 561.384C297.561 559.878 297.487 558.36 298.043 556.832C298.599 555.304 299.632 554.19 301.141 553.489C302.592 552.816 304.056 552.771 305.532 553.356C307.065 553.915 308.185 554.947 308.891 556.454C309.597 557.961 309.672 559.478 309.116 561.006C308.618 562.508 307.643 563.595 306.192 564.269ZM313.648 570.227L335.968 617.866L328.044 621.543L305.724 573.905L313.648 570.227ZM349.996 552.3C355.802 549.606 361.332 549.191 366.588 551.056C371.816 552.863 375.978 557.069 379.074 563.676L392.23 591.755L384.392 595.392L371.766 568.444C369.539 563.691 366.652 560.621 363.105 559.234C359.53 557.789 355.681 558.022 351.56 559.935C347.38 561.875 344.653 564.728 343.378 568.495C342.162 572.234 342.721 576.596 345.057 581.58L357.398 607.92L349.474 611.598L327.154 563.959L335.078 560.282L338.255 567.063C338.682 563.901 339.918 561.034 341.964 558.462C344.068 555.863 346.745 553.809 349.996 552.3ZM402.167 528.194C406.289 526.281 410.309 525.509 414.227 525.877C418.204 526.219 421.585 527.402 424.371 529.425L420.298 520.732L428.309 517.014L451.118 565.695C453.154 570.042 454.031 574.327 453.748 578.55C453.493 582.832 452.071 586.737 449.484 590.266C446.955 593.768 443.398 596.583 438.811 598.712C432.542 601.622 426.625 602.569 421.06 601.553C415.495 600.537 411.141 597.654 407.997 592.904L415.834 589.267C418.062 591.761 420.948 593.244 424.491 593.716C428.061 594.246 431.762 593.622 435.594 591.844C439.948 589.824 442.851 586.818 444.303 582.828C445.813 578.811 445.415 574.34 443.107 569.413L438.423 559.416C438.159 562.926 436.923 566.321 434.715 569.604C432.507 572.886 429.342 575.484 425.22 577.397C420.982 579.364 416.633 580.112 412.172 579.642C407.77 579.145 403.699 577.472 399.96 574.621C396.221 571.77 393.225 567.939 390.972 563.129C388.691 558.261 387.682 553.543 387.945 548.976C388.181 544.351 389.536 540.229 392.011 536.611C394.544 532.966 397.929 530.16 402.167 528.194ZM431.417 544.464C429.733 540.871 427.542 538.078 424.841 536.086C422.141 534.094 419.217 532.981 416.069 532.749C412.952 532.431 409.913 532.96 406.952 534.334C403.991 535.708 401.618 537.656 399.831 540.179C398.045 542.701 397.05 545.632 396.848 548.971C396.646 552.311 397.386 555.777 399.07 559.37C400.781 563.021 403 565.872 405.727 567.922C408.428 569.915 411.336 571.07 414.453 571.387C417.543 571.646 420.569 571.089 423.529 569.715C426.49 568.341 428.864 566.393 430.65 563.87C432.467 561.263 433.477 558.289 433.68 554.95C433.855 551.553 433.101 548.057 431.417 544.464ZM453.249 514.858C453.366 511.488 454.349 508.457 456.197 505.764C458.104 503.045 460.915 500.823 464.63 499.099L468.459 507.271L466.369 508.241C457.487 512.363 455.299 519.234 459.807 528.854L471.944 554.76L464.02 558.437L441.7 510.799L449.624 507.122L453.249 514.858ZM517.683 534.485C513.213 536.56 508.674 537.432 504.067 537.1C499.517 536.742 495.328 535.194 491.501 532.455C487.704 529.631 484.651 525.756 482.343 520.829C480.063 515.961 479.098 511.188 479.45 506.509C479.833 501.745 481.392 497.529 484.126 493.861C486.833 490.136 490.45 487.222 494.978 485.12C499.507 483.019 504.074 482.134 508.682 482.465C513.263 482.738 517.467 484.244 521.295 486.983C525.18 489.695 528.277 493.515 530.585 498.441C532.893 503.367 533.827 508.225 533.386 513.016C532.976 517.722 531.388 521.951 528.623 525.704C525.858 529.457 522.211 532.384 517.683 534.485ZM514.425 527.531C517.27 526.211 519.628 524.305 521.499 521.813C523.371 519.322 524.437 516.393 524.698 513.027C525.016 509.633 524.279 506.024 522.487 502.199C520.695 498.374 518.42 495.479 515.661 493.514C512.903 491.548 510.006 490.494 506.97 490.35C503.907 490.149 500.954 490.708 498.109 492.028C495.206 493.376 492.848 495.281 491.035 497.746C489.252 500.125 488.259 502.985 488.057 506.324C487.855 509.664 488.65 513.246 490.442 517.071C492.261 520.954 494.492 523.905 497.134 525.924C499.835 527.917 502.687 529.027 505.692 529.255C508.669 529.426 511.58 528.851 514.425 527.531ZM573.383 508.635C568.913 510.71 564.375 511.581 559.767 511.25C555.217 510.892 551.028 509.344 547.201 506.605C543.404 503.781 540.352 499.906 538.043 494.979C535.763 490.111 534.798 485.338 535.15 480.659C535.533 475.895 537.092 471.679 539.826 468.011C542.533 464.285 546.15 461.372 550.679 459.27C555.207 457.169 559.775 456.284 564.382 456.615C568.963 456.888 573.167 458.394 576.995 461.133C580.88 463.845 583.977 467.665 586.285 472.591C588.593 477.517 589.527 482.375 589.086 487.166C588.676 491.872 587.088 496.101 584.323 499.854C581.558 503.607 577.912 506.534 573.383 508.635ZM570.125 501.681C572.97 500.361 575.328 498.455 577.2 495.963C579.071 493.472 580.137 490.543 580.398 487.177C580.716 483.783 579.979 480.174 578.187 476.349C576.395 472.524 574.12 469.629 571.361 467.663C568.603 465.698 565.706 464.644 562.67 464.5C559.607 464.299 556.654 464.858 553.809 466.178C550.906 467.525 548.548 469.431 546.735 471.896C544.952 474.275 543.959 477.135 543.757 480.474C543.555 483.814 544.35 487.396 546.142 491.221C547.961 495.104 550.192 498.055 552.834 500.074C555.535 502.067 558.387 503.177 561.392 503.405C564.369 503.576 567.28 503.001 570.125 501.681ZM622.248 476.115L618.153 428.909L626.599 424.989L630.197 481.316L620.967 485.6L579.925 446.65L588.459 442.689L622.248 476.115ZM688.241 423.157C688.947 424.664 689.607 426.298 690.22 428.059L652.079 445.76C654.569 450.32 657.89 453.259 662.042 454.578C666.224 455.812 670.405 455.459 674.585 453.519C678.01 451.929 680.488 449.827 682.019 447.211C683.581 444.511 684.202 441.612 683.882 438.515L692.415 434.555C693.283 439.726 692.48 444.649 690.007 449.325C687.506 453.943 683.411 457.572 677.721 460.213C673.193 462.314 668.654 463.186 664.105 462.828C659.613 462.443 655.483 460.867 651.713 458.101C647.916 455.277 644.864 451.402 642.556 446.476C640.248 441.55 639.212 436.774 639.447 432.149C639.683 427.524 641.11 423.405 643.728 419.791C646.377 416.092 650.024 413.165 654.668 411.009C659.196 408.908 663.664 408.034 668.07 408.388C672.476 408.742 676.423 410.227 679.91 412.842C683.428 415.372 686.205 418.81 688.241 423.157ZM679.282 425.304C677.87 422.29 675.994 420.021 673.654 418.497C671.287 416.914 668.685 416.111 665.847 416.088C663.039 415.979 660.243 416.572 657.456 417.865C653.45 419.724 650.623 422.588 648.973 426.459C647.381 430.302 647.441 434.578 649.153 439.287L679.282 425.304Z" fill="url(#paint1_linear_26_5)" fill-opacity="0.9"/>
<defs>
<filter id="filter0_d_26_5" x="0" y="0" width="1058.88" height="1058" filterUnits="userSpaceOnUse" color-interpolation-filters="sRGB">
<feFlood flood-opacity="0" result="BackgroundImageFix"/>
<feColorMatrix in="SourceAlpha" type="matrix" values="0 0 0 0 0 0 0 0 0 0 0 0 0 0 0 0 0 0 127 0" result="hardAlpha"/>
<feOffset dy="19"/>
<feGaussianBlur stdDeviation="7.5"/>
<feComposite in2="hardAlpha" operator="out"/>
<feColorMatrix type="matrix" values="0 0 0 0 0 0 0 0 0 0 0 0 0 0 0 0 0 0 0.15 0"/>
<feBlend mode="normal" in2="BackgroundImageFix" result="effect1_dropShadow_26_5"/>
<feBlend mode="normal" in="SourceGraphic" in2="effect1_dropShadow_26_5" result="shape"/>
</filter>
<filter id="filter1_di_26_5" x="170.626" y="226.567" width="748.286" height="584.776" filterUnits="userSpaceOnUse" color-interpolation-filters="sRGB">
<feFlood flood-opacity="0" result="BackgroundImageFix"/>
<feColorMatrix in="SourceAlpha" type="matrix" values="0 0 0 0 0 0 0 0 0 0 0 0 0 0 0 0 0 0 127 0" result="hardAlpha"/>
<feOffset dx="15" dy="20"/>
<feGaussianBlur stdDeviation="7.5"/>
<feComposite in2="hardAlpha" operator="out"/>
<feColorMatrix type="matrix" values="0 0 0 0 0.802997 0 0 0 0 0.0816298 0 0 0 0 0.0816298 0 0 0 0.25 0"/>
<feBlend mode="overlay" in2="BackgroundImageFix" result="effect1_dropShadow_26_5"/>
<feBlend mode="normal" in="SourceGraphic" in2="effect1_dropShadow_26_5" result="shape"/>
<feColorMatrix in="SourceAlpha" type="matrix" values="0 0 0 0 0 0 0 0 0 0 0 0 0 0 0 0 0 0 127 0" result="hardAlpha"/>
<feOffset dy="4"/>
<feGaussianBlur stdDeviation="5"/>
<feComposite in2="hardAlpha" operator="arithmetic" k2="-1" k3="1"/>
<feColorMatrix type="matrix" values="0 0 0 0 0 0 0 0 0 0 0 0 0 0 0 0 0 0 0.1 0"/>
<feBlend mode="normal" in2="shape" result="effect2_innerShadow_26_5"/>
</filter>
<linearGradient id="paint0_linear_26_5" x1="180.193" y1="138.809" x2="879.669" y2="896.475" gradientUnits="userSpaceOnUse">
<stop offset="0.0384615" stop-color="#13967A" stop-opacity="0.2"/>
<stop offset="0.278846" stop-color="#13967A" stop-opacity="0.4"/>
<stop offset="0.576304" stop-color="#13967A" stop-opacity="0.5"/>
<stop offset="0.790454" stop-color="#13967A" stop-opacity="0.6"/>
</linearGradient>
<linearGradient id="paint1_linear_26_5" x1="326.693" y1="595.7" x2="747.665" y2="398.462" gradientUnits="userSpaceOnUse">
<stop stop-color="#13967A" stop-opacity="0.6"/>
<stop offset="0.197115" stop-color="#106150" stop-opacity="0.89"/>
<stop offset="0.947115" stop-color="#052C24"/>
</linearGradient>
</defs>
</svg>
